<svg xmlns="http://www.w3.org/2000/svg" width="860" height="296" viewBox="0 0 860 296"><defs><pattern id="grid" width="22" height="22" patternUnits="userSpaceOnUse"><path d="M22 0H0V22" fill="none" stroke="#fff" stroke-opacity=".035"/></pattern><pattern id="scan" width="4" height="4" patternUnits="userSpaceOnUse"><rect width="4" height="1" fill="#000" fill-opacity=".18"/></pattern><linearGradient id="veil" x1="0" x2="1"><stop offset="0" stop-color="#0d1117" stop-opacity=".96"/><stop offset=".42" stop-color="#0d1117" stop-opacity=".86"/><stop offset=".72" stop-color="#0d1117" stop-opacity=".25"/><stop offset="1" stop-color="#0d1117" stop-opacity=".05"/></linearGradient><radialGradient id="glow" cx=".85" cy=".15" r=".65"><stop offset="0" stop-color="#a9c98c" stop-opacity=".13"/><stop offset="1" stop-color="#a9c98c" stop-opacity="0"/></radialGradient><clipPath id="card"><rect width="860" height="296" rx="12"/></clipPath><filter id="soft" x="-10%" y="-50%" width="120%" height="200%"><feGaussianBlur stdDeviation="6"/></filter><clipPath id="pr"><rect x="40" y="50" height="16.8" width="0"><animate attributeName="width" from="0" to="259" begin=".1s" dur="1s" fill="freeze"/></rect></clipPath><clipPath id="ph0"><rect x="152" y="151" height="22.95" width="0"><animate attributeName="width" values="0.0;0.0;153.0;153.0;0.0;0.0" keyTimes="0.0000;0.0001;0.0809;0.1985;0.2316;1.0000" dur="13.6s" begin="1.6s" repeatCount="indefinite"/></rect></clipPath><clipPath id="ph1"><rect x="152" y="151" height="22.95" width="0"><animate attributeName="width" values="0.0;0.0;122.4;122.4;0.0;0.0" keyTimes="0.0000;0.2501;0.3309;0.4485;0.4816;1.0000" dur="13.6s" begin="1.6s" repeatCount="indefinite"/></rect></clipPath><clipPath id="ph2"><rect x="152" y="151" height="22.95" width="0"><animate attributeName="width" values="0.0;0.0;193.8;193.8;0.0;0.0" keyTimes="0.0000;0.5001;0.5809;0.6985;0.7316;1.0000" dur="13.6s" begin="1.6s" repeatCount="indefinite"/></rect></clipPath><clipPath id="ph3"><rect x="152" y="151" height="22.95" width="0"><animate attributeName="width" values="0.0;0.0;265.2;265.2;0.0;0.0" keyTimes="0.0000;0.7501;0.8309;0.9485;0.9816;1.0000" dur="13.6s" begin="1.6s" repeatCount="indefinite"/></rect></clipPath></defs><g clip-path="url(#card)" font-family="'JetBrains Mono','SF Mono',Menlo,'Roboto Mono','DejaVu Sans Mono',Consolas,'Liberation Mono','Courier New',monospace"><rect width="860" height="296" fill="#0d1117"/><rect width="860" height="296" fill="url(#grid)"/><rect width="860" height="296" fill="url(#glow)"/><g opacity="0"><set attributeName="opacity" to="1" begin="0.30s"/><line x1="30.2" y1="173.6" x2="30.2" y2="186.8" stroke="#c96b6b"/><rect x="26.7" y="175.4" width="6.9" height="8.4" fill="#c96b6b"><animate attributeName="height" from="0" to="8.4" begin="0.30s" dur=".25s" fill="freeze"/></rect></g><g opacity="0"><set attributeName="opacity" to="1" begin="0.34s"/><line x1="42.5" y1="177.7" x2="42.5" y2="190.2" stroke="#c96b6b"/><rect x="39.0" y="183.8" width="6.9" height="6.0" fill="#c96b6b"><animate attributeName="height" from="0" to="6.0" begin="0.34s" dur=".25s" fill="freeze"/></rect></g><g opacity="0"><set attributeName="opacity" to="1" begin="0.39s"/><line x1="54.8" y1="180.8" x2="54.8" y2="221.5" stroke="#c96b6b"/><rect x="51.3" y="189.8" width="6.9" height="26.0" fill="#c96b6b"><animate attributeName="height" from="0" to="26.0" begin="0.39s" dur=".25s" fill="freeze"/></rect></g><g opacity="0"><set attributeName="opacity" to="1" begin="0.43s"/><line x1="67.1" y1="204.6" x2="67.1" y2="221.9" stroke="#7f9f68"/><rect x="63.6" y="205.6" width="6.9" height="10.3" fill="#7f9f68"><animate attributeName="height" from="0" to="10.3" begin="0.43s" dur=".25s" fill="freeze"/></rect></g><g opacity="0"><set attributeName="opacity" to="1" begin="0.48s"/><line x1="79.4" y1="192.4" x2="79.4" y2="210.9" stroke="#7f9f68"/><rect x="75.9" y="192.4" width="6.9" height="13.2" fill="#7f9f68"><animate attributeName="height" from="0" to="13.2" begin="0.48s" dur=".25s" fill="freeze"/></rect></g><g opacity="0"><set attributeName="opacity" to="1" begin="0.52s"/><line x1="91.7" y1="191.5" x2="91.7" y2="205.2" stroke="#c96b6b"/><rect x="88.2" y="192.4" width="6.9" height="5.7" fill="#c96b6b"><animate attributeName="height" from="0" to="5.7" begin="0.52s" dur=".25s" fill="freeze"/></rect></g><g opacity="0"><set attributeName="opacity" to="1" begin="0.57s"/><line x1="104.0" y1="183.4" x2="104.0" y2="207.9" stroke="#7f9f68"/><rect x="100.5" y="189.6" width="6.9" height="8.5" fill="#7f9f68"><animate attributeName="height" from="0" to="8.5" begin="0.57s" dur=".25s" fill="freeze"/></rect></g><g opacity="0"><set attributeName="opacity" to="1" begin="0.61s"/><line x1="116.3" y1="171.5" x2="116.3" y2="191.2" stroke="#7f9f68"/><rect x="112.8" y="175.5" width="6.9" height="14.1" fill="#7f9f68"><animate attributeName="height" from="0" to="14.1" begin="0.61s" dur=".25s" fill="freeze"/></rect></g><g opacity="0"><set attributeName="opacity" to="1" begin="0.66s"/><line x1="128.6" y1="170.6" x2="128.6" y2="182.6" stroke="#c96b6b"/><rect x="125.1" y="175.5" width="6.9" height="2.4" fill="#c96b6b"><animate attributeName="height" from="0" to="2.4" begin="0.66s" dur=".25s" fill="freeze"/></rect></g><g opacity="0"><set attributeName="opacity" to="1" begin="0.70s"/><line x1="140.9" y1="166.5" x2="140.9" y2="184.1" stroke="#7f9f68"/><rect x="137.4" y="176.3" width="6.9" height="1.6" fill="#7f9f68"><animate attributeName="height" from="0" to="1.6" begin="0.70s" dur=".25s" fill="freeze"/></rect></g><g opacity="0"><set attributeName="opacity" to="1" begin="0.75s"/><line x1="153.2" y1="175.2" x2="153.2" y2="194.6" stroke="#c96b6b"/><rect x="149.7" y="176.3" width="6.9" height="17.9" fill="#c96b6b"><animate attributeName="height" from="0" to="17.9" begin="0.75s" dur=".25s" fill="freeze"/></rect></g><g opacity="0"><set attributeName="opacity" to="1" begin="0.79s"/><line x1="165.5" y1="190.2" x2="165.5" y2="213.4" stroke="#c96b6b"/><rect x="162.0" y="194.2" width="6.9" height="13.9" fill="#c96b6b"><animate attributeName="height" from="0" to="13.9" begin="0.79s" dur=".25s" fill="freeze"/></rect></g><g opacity="0"><set attributeName="opacity" to="1" begin="0.84s"/><line x1="177.8" y1="200.4" x2="177.8" y2="234.0" stroke="#c96b6b"/><rect x="174.3" y="208.1" width="6.9" height="13.3" fill="#c96b6b"><animate attributeName="height" from="0" to="13.3" begin="0.84s" dur=".25s" fill="freeze"/></rect></g><g opacity="0"><set attributeName="opacity" to="1" begin="0.89s"/><line x1="190.1" y1="200.0" x2="190.1" y2="224.1" stroke="#7f9f68"/><rect x="186.6" y="202.4" width="6.9" height="19.0" fill="#7f9f68"><animate attributeName="height" from="0" to="19.0" begin="0.89s" dur=".25s" fill="freeze"/></rect></g><g opacity="0"><set attributeName="opacity" to="1" begin="0.93s"/><line x1="202.4" y1="188.7" x2="202.4" y2="208.4" stroke="#7f9f68"/><rect x="198.9" y="193.6" width="6.9" height="8.8" fill="#7f9f68"><animate attributeName="height" from="0" to="8.8" begin="0.93s" dur=".25s" fill="freeze"/></rect></g><g opacity="0"><set attributeName="opacity" to="1" begin="0.97s"/><line x1="214.7" y1="177.9" x2="214.7" y2="198.5" stroke="#7f9f68"/><rect x="211.3" y="186.1" width="6.9" height="7.4" fill="#7f9f68"><animate attributeName="height" from="0" to="7.4" begin="0.97s" dur=".25s" fill="freeze"/></rect></g><g opacity="0"><set attributeName="opacity" to="1" begin="1.02s"/><line x1="227.0" y1="182.9" x2="227.0" y2="214.8" stroke="#c96b6b"/><rect x="223.6" y="186.1" width="6.9" height="25.6" fill="#c96b6b"><animate attributeName="height" from="0" to="25.6" begin="1.02s" dur=".25s" fill="freeze"/></rect></g><g opacity="0"><set attributeName="opacity" to="1" begin="1.06s"/><line x1="239.3" y1="204.5" x2="239.3" y2="225.7" stroke="#c96b6b"/><rect x="235.9" y="211.7" width="6.9" height="6.7" fill="#c96b6b"><animate attributeName="height" from="0" to="6.7" begin="1.06s" dur=".25s" fill="freeze"/></rect></g><g opacity="0"><set attributeName="opacity" to="1" begin="1.11s"/><line x1="251.6" y1="194.6" x2="251.6" y2="222.8" stroke="#7f9f68"/><rect x="248.2" y="196.8" width="6.9" height="21.7" fill="#7f9f68"><animate attributeName="height" from="0" to="21.7" begin="1.11s" dur=".25s" fill="freeze"/></rect></g><g opacity="0"><set attributeName="opacity" to="1" begin="1.16s"/><line x1="263.9" y1="193.1" x2="263.9" y2="214.1" stroke="#7f9f68"/><rect x="260.5" y="196.2" width="6.9" height="1.0" fill="#7f9f68"><animate attributeName="height" from="0" to="1.0" begin="1.16s" dur=".25s" fill="freeze"/></rect></g><g opacity="0"><set attributeName="opacity" to="1" begin="1.20s"/><line x1="276.2" y1="164.6" x2="276.2" y2="199.3" stroke="#7f9f68"/><rect x="272.8" y="166.6" width="6.9" height="29.6" fill="#7f9f68"><animate attributeName="height" from="0" to="29.6" begin="1.20s" dur=".25s" fill="freeze"/></rect></g><g opacity="0"><set attributeName="opacity" to="1" begin="1.24s"/><line x1="288.5" y1="158.1" x2="288.5" y2="179.8" stroke="#c96b6b"/><rect x="285.1" y="166.6" width="6.9" height="1.2" fill="#c96b6b"><animate attributeName="height" from="0" to="1.2" begin="1.24s" dur=".25s" fill="freeze"/></rect></g><g opacity="0"><set attributeName="opacity" to="1" begin="1.29s"/><line x1="300.8" y1="138.5" x2="300.8" y2="169.6" stroke="#7f9f68"/><rect x="297.4" y="141.8" width="6.9" height="26.1" fill="#7f9f68"><animate attributeName="height" from="0" to="26.1" begin="1.29s" dur=".25s" fill="freeze"/></rect></g><g opacity="0"><set attributeName="opacity" to="1" begin="1.33s"/><line x1="313.1" y1="141.5" x2="313.1" y2="160.6" stroke="#c96b6b"/><rect x="309.7" y="141.8" width="6.9" height="18.0" fill="#c96b6b"><animate attributeName="height" from="0" to="18.0" begin="1.33s" dur=".25s" fill="freeze"/></rect></g><g opacity="0"><set attributeName="opacity" to="1" begin="1.38s"/><line x1="325.4" y1="150.0" x2="325.4" y2="182.5" stroke="#c96b6b"/><rect x="322.0" y="159.8" width="6.9" height="15.2" fill="#c96b6b"><animate attributeName="height" from="0" to="15.2" begin="1.38s" dur=".25s" fill="freeze"/></rect></g><g opacity="0"><set attributeName="opacity" to="1" begin="1.43s"/><line x1="337.7" y1="170.9" x2="337.7" y2="177.5" stroke="#c96b6b"/><rect x="334.3" y="175.0" width="6.9" height="2.3" fill="#c96b6b"><animate attributeName="height" from="0" to="2.3" begin="1.43s" dur=".25s" fill="freeze"/></rect></g><g opacity="0"><set attributeName="opacity" to="1" begin="1.47s"/><line x1="350.0" y1="175.8" x2="350.0" y2="187.6" stroke="#c96b6b"/><rect x="346.6" y="177.3" width="6.9" height="6.1" fill="#c96b6b"><animate attributeName="height" from="0" to="6.1" begin="1.47s" dur=".25s" fill="freeze"/></rect></g><g opacity="0"><set attributeName="opacity" to="1" begin="1.51s"/><line x1="362.3" y1="176.3" x2="362.3" y2="183.4" stroke="#7f9f68"/><rect x="358.9" y="179.7" width="6.9" height="3.7" fill="#7f9f68"><animate attributeName="height" from="0" to="3.7" begin="1.51s" dur=".25s" fill="freeze"/></rect></g><g opacity="0"><set attributeName="opacity" to="1" begin="1.56s"/><line x1="374.6" y1="169.3" x2="374.6" y2="191.0" stroke="#7f9f68"/><rect x="371.2" y="171.9" width="6.9" height="7.8" fill="#7f9f68"><animate attributeName="height" from="0" to="7.8" begin="1.56s" dur=".25s" fill="freeze"/></rect></g><g opacity="0"><set attributeName="opacity" to="1" begin="1.60s"/><line x1="386.9" y1="162.2" x2="386.9" y2="175.2" stroke="#7f9f68"/><rect x="383.5" y="165.2" width="6.9" height="6.8" fill="#7f9f68"><animate attributeName="height" from="0" to="6.8" begin="1.60s" dur=".25s" fill="freeze"/></rect></g><g opacity="0"><set attributeName="opacity" to="1" begin="1.65s"/><line x1="399.2" y1="155.1" x2="399.2" y2="179.7" stroke="#c96b6b"/><rect x="395.8" y="165.2" width="6.9" height="14.3" fill="#c96b6b"><animate attributeName="height" from="0" to="14.3" begin="1.65s" dur=".25s" fill="freeze"/></rect></g><g opacity="0"><set attributeName="opacity" to="1" begin="1.70s"/><line x1="411.5" y1="158.0" x2="411.5" y2="187.0" stroke="#7f9f68"/><rect x="408.1" y="166.2" width="6.9" height="13.2" fill="#7f9f68"><animate attributeName="height" from="0" to="13.2" begin="1.70s" dur=".25s" fill="freeze"/></rect></g><g opacity="0"><set attributeName="opacity" to="1" begin="1.74s"/><line x1="423.8" y1="158.1" x2="423.8" y2="184.7" stroke="#c96b6b"/><rect x="420.4" y="166.2" width="6.9" height="13.4" fill="#c96b6b"><animate attributeName="height" from="0" to="13.4" begin="1.74s" dur=".25s" fill="freeze"/></rect></g><g opacity="0"><set attributeName="opacity" to="1" begin="1.78s"/><line x1="436.2" y1="175.0" x2="436.2" y2="192.6" stroke="#c96b6b"/><rect x="432.7" y="179.6" width="6.9" height="2.4" fill="#c96b6b"><animate attributeName="height" from="0" to="2.4" begin="1.78s" dur=".25s" fill="freeze"/></rect></g><g opacity="0"><set attributeName="opacity" to="1" begin="1.83s"/><line x1="448.5" y1="167.6" x2="448.5" y2="185.8" stroke="#7f9f68"/><rect x="445.0" y="169.6" width="6.9" height="12.4" fill="#7f9f68"><animate attributeName="height" from="0" to="12.4" begin="1.83s" dur=".25s" fill="freeze"/></rect></g><g opacity="0"><set attributeName="opacity" to="1" begin="1.88s"/><line x1="460.8" y1="140.6" x2="460.8" y2="179.2" stroke="#7f9f68"/><rect x="457.3" y="143.0" width="6.9" height="26.7" fill="#7f9f68"><animate attributeName="height" from="0" to="26.7" begin="1.88s" dur=".25s" fill="freeze"/></rect></g><g opacity="0"><set attributeName="opacity" to="1" begin="1.92s"/><line x1="473.1" y1="140.4" x2="473.1" y2="165.5" stroke="#c96b6b"/><rect x="469.6" y="143.0" width="6.9" height="8.6" fill="#c96b6b"><animate attributeName="height" from="0" to="8.6" begin="1.92s" dur=".25s" fill="freeze"/></rect></g><g opacity="0"><set attributeName="opacity" to="1" begin="1.97s"/><line x1="485.4" y1="145.7" x2="485.4" y2="157.0" stroke="#7f9f68"/><rect x="481.9" y="149.3" width="6.9" height="2.3" fill="#7f9f68"><animate attributeName="height" from="0" to="2.3" begin="1.97s" dur=".25s" fill="freeze"/></rect></g><g opacity="0"><set attributeName="opacity" to="1" begin="2.01s"/><line x1="497.7" y1="135.5" x2="497.7" y2="158.6" stroke="#7f9f68"/><rect x="494.2" y="140.4" width="6.9" height="8.8" fill="#7f9f68"><animate attributeName="height" from="0" to="8.8" begin="2.01s" dur=".25s" fill="freeze"/></rect></g><g opacity="0"><set attributeName="opacity" to="1" begin="2.05s"/><line x1="510.0" y1="129.1" x2="510.0" y2="140.5" stroke="#7f9f68"/><rect x="506.5" y="135.0" width="6.9" height="5.5" fill="#7f9f68"><animate attributeName="height" from="0" to="5.5" begin="2.05s" dur=".25s" fill="freeze"/></rect></g><g opacity="0"><set attributeName="opacity" to="1" begin="2.10s"/><line x1="522.3" y1="102.5" x2="522.3" y2="139.3" stroke="#7f9f68"/><rect x="518.8" y="107.8" width="6.9" height="27.1" fill="#7f9f68"><animate attributeName="height" from="0" to="27.1" begin="2.10s" dur=".25s" fill="freeze"/></rect></g><g opacity="0"><set attributeName="opacity" to="1" begin="2.15s"/><line x1="534.6" y1="101.0" x2="534.6" y2="122.6" stroke="#7f9f68"/><rect x="531.1" y="102.5" width="6.9" height="5.3" fill="#7f9f68"><animate attributeName="height" from="0" to="5.3" begin="2.15s" dur=".25s" fill="freeze"/></rect></g><g opacity="0"><set attributeName="opacity" to="1" begin="2.19s"/><line x1="546.9" y1="83.7" x2="546.9" y2="104.8" stroke="#7f9f68"/><rect x="543.4" y="92.1" width="6.9" height="10.4" fill="#7f9f68"><animate attributeName="height" from="0" to="10.4" begin="2.19s" dur=".25s" fill="freeze"/></rect></g><g opacity="0"><set attributeName="opacity" to="1" begin="2.23s"/><line x1="559.2" y1="82.9" x2="559.2" y2="97.7" stroke="#c96b6b"/><rect x="555.7" y="92.1" width="6.9" height="3.7" fill="#c96b6b"><animate attributeName="height" from="0" to="3.7" begin="2.23s" dur=".25s" fill="freeze"/></rect></g><g opacity="0"><set attributeName="opacity" to="1" begin="2.28s"/><line x1="571.5" y1="76.4" x2="571.5" y2="103.1" stroke="#7f9f68"/><rect x="568.0" y="79.1" width="6.9" height="16.8" fill="#7f9f68"><animate attributeName="height" from="0" to="16.8" begin="2.28s" dur=".25s" fill="freeze"/></rect></g><g opacity="0"><set attributeName="opacity" to="1" begin="2.32s"/><line x1="583.8" y1="77.9" x2="583.8" y2="82.1" stroke="#c96b6b"/><rect x="580.3" y="79.1" width="6.9" height="1.0" fill="#c96b6b"><animate attributeName="height" from="0" to="1.0" begin="2.32s" dur=".25s" fill="freeze"/></rect></g><g opacity="0"><set attributeName="opacity" to="1" begin="2.37s"/><line x1="596.1" y1="73.7" x2="596.1" y2="88.0" stroke="#c96b6b"/><rect x="592.6" y="79.2" width="6.9" height="1.1" fill="#c96b6b"><animate attributeName="height" from="0" to="1.1" begin="2.37s" dur=".25s" fill="freeze"/></rect></g><g opacity="0"><set attributeName="opacity" to="1" begin="2.41s"/><line x1="608.4" y1="57.0" x2="608.4" y2="86.6" stroke="#7f9f68"/><rect x="604.9" y="65.4" width="6.9" height="15.0" fill="#7f9f68"><animate attributeName="height" from="0" to="15.0" begin="2.41s" dur=".25s" fill="freeze"/></rect></g><g opacity="0"><set attributeName="opacity" to="1" begin="2.46s"/><line x1="620.7" y1="52.7" x2="620.7" y2="66.1" stroke="#7f9f68"/><rect x="617.3" y="55.9" width="6.9" height="9.5" fill="#7f9f68"><animate attributeName="height" from="0" to="9.5" begin="2.46s" dur=".25s" fill="freeze"/></rect></g><g opacity="0"><set attributeName="opacity" to="1" begin="2.50s"/><line x1="633.0" y1="46.0" x2="633.0" y2="64.7" stroke="#7f9f68"/><rect x="629.6" y="54.3" width="6.9" height="1.5" fill="#7f9f68"><animate attributeName="height" from="0" to="1.5" begin="2.50s" dur=".25s" fill="freeze"/></rect></g><g opacity="0"><set attributeName="opacity" to="1" begin="2.55s"/><line x1="645.3" y1="46.3" x2="645.3" y2="57.6" stroke="#7f9f68"/><rect x="641.9" y="50.9" width="6.9" height="3.4" fill="#7f9f68"><animate attributeName="height" from="0" to="3.4" begin="2.55s" dur=".25s" fill="freeze"/></rect></g><g opacity="0"><set attributeName="opacity" to="1" begin="2.59s"/><line x1="657.6" y1="47.5" x2="657.6" y2="61.3" stroke="#c96b6b"/><rect x="654.2" y="50.9" width="6.9" height="4.8" fill="#c96b6b"><animate attributeName="height" from="0" to="4.8" begin="2.59s" dur=".25s" fill="freeze"/></rect></g><g opacity="0"><set attributeName="opacity" to="1" begin="2.64s"/><line x1="669.9" y1="46.4" x2="669.9" y2="59.8" stroke="#c96b6b"/><rect x="666.5" y="55.7" width="6.9" height="3.1" fill="#c96b6b"><animate attributeName="height" from="0" to="3.1" begin="2.64s" dur=".25s" fill="freeze"/></rect></g><g opacity="0"><set attributeName="opacity" to="1" begin="2.68s"/><line x1="682.2" y1="56.2" x2="682.2" y2="77.3" stroke="#c96b6b"/><rect x="678.8" y="58.8" width="6.9" height="18.2" fill="#c96b6b"><animate attributeName="height" from="0" to="18.2" begin="2.68s" dur=".25s" fill="freeze"/></rect></g><g opacity="0"><set attributeName="opacity" to="1" begin="2.73s"/><line x1="694.5" y1="56.9" x2="694.5" y2="80.3" stroke="#7f9f68"/><rect x="691.1" y="76.2" width="6.9" height="1.0" fill="#7f9f68"><animate attributeName="height" from="0" to="1.0" begin="2.73s" dur=".25s" fill="freeze"/></rect></g><g opacity="0"><set attributeName="opacity" to="1" begin="2.77s"/><line x1="706.8" y1="75.6" x2="706.8" y2="96.9" stroke="#c96b6b"/><rect x="703.4" y="76.2" width="6.9" height="17.4" fill="#c96b6b"><animate attributeName="height" from="0" to="17.4" begin="2.77s" dur=".25s" fill="freeze"/></rect></g><g opacity="0"><set attributeName="opacity" to="1" begin="2.82s"/><line x1="719.1" y1="79.8" x2="719.1" y2="95.3" stroke="#c96b6b"/><rect x="715.7" y="93.5" width="6.9" height="1.8" fill="#c96b6b"><animate attributeName="height" from="0" to="1.8" begin="2.82s" dur=".25s" fill="freeze"/></rect></g><g opacity="0"><set attributeName="opacity" to="1" begin="2.86s"/><line x1="731.4" y1="89.5" x2="731.4" y2="113.7" stroke="#c96b6b"/><rect x="728.0" y="95.3" width="6.9" height="9.4" fill="#c96b6b"><animate attributeName="height" from="0" to="9.4" begin="2.86s" dur=".25s" fill="freeze"/></rect></g><g opacity="0"><set attributeName="opacity" to="1" begin="2.91s"/><line x1="743.7" y1="100.7" x2="743.7" y2="108.5" stroke="#7f9f68"/><rect x="740.3" y="103.7" width="6.9" height="1.0" fill="#7f9f68"><animate attributeName="height" from="0" to="1.0" begin="2.91s" dur=".25s" fill="freeze"/></rect></g><g opacity="0"><set attributeName="opacity" to="1" begin="2.95s"/><line x1="756.0" y1="99.9" x2="756.0" y2="129.3" stroke="#c96b6b"/><rect x="752.6" y="103.7" width="6.9" height="15.4" fill="#c96b6b"><animate attributeName="height" from="0" to="15.4" begin="2.95s" dur=".25s" fill="freeze"/></rect></g><g opacity="0"><set attributeName="opacity" to="1" begin="3.00s"/><line x1="768.3" y1="111.9" x2="768.3" y2="138.1" stroke="#c96b6b"/><rect x="764.9" y="119.1" width="6.9" height="9.5" fill="#c96b6b"><animate attributeName="height" from="0" to="9.5" begin="3.00s" dur=".25s" fill="freeze"/></rect></g><g opacity="0"><set attributeName="opacity" to="1" begin="3.04s"/><line x1="780.6" y1="99.5" x2="780.6" y2="135.7" stroke="#7f9f68"/><rect x="777.2" y="106.8" width="6.9" height="21.8" fill="#7f9f68"><animate attributeName="height" from="0" to="21.8" begin="3.04s" dur=".25s" fill="freeze"/></rect></g><g opacity="0"><set attributeName="opacity" to="1" begin="3.09s"/><line x1="792.9" y1="94.9" x2="792.9" y2="121.0" stroke="#c96b6b"/><rect x="789.5" y="106.8" width="6.9" height="12.9" fill="#c96b6b"><animate attributeName="height" from="0" to="12.9" begin="3.09s" dur=".25s" fill="freeze"/></rect></g><g opacity="0"><set attributeName="opacity" to="1" begin="3.13s"/><line x1="805.2" y1="114.9" x2="805.2" y2="125.0" stroke="#c96b6b"/><rect x="801.8" y="119.7" width="6.9" height="4.8" fill="#c96b6b"><animate attributeName="height" from="0" to="4.8" begin="3.13s" dur=".25s" fill="freeze"/></rect></g><g opacity="0"><set attributeName="opacity" to="1" begin="3.18s"/><line x1="817.5" y1="99.3" x2="817.5" y2="125.8" stroke="#7f9f68"/><rect x="814.1" y="102.1" width="6.9" height="22.5" fill="#7f9f68"><animate attributeName="height" from="0" to="22.5" begin="3.18s" dur=".25s" fill="freeze"/></rect></g><g opacity="0"><set attributeName="opacity" to="1" begin="3.22s"/><line x1="829.8" y1="100.4" x2="829.8" y2="114.7" stroke="#c96b6b"/><rect x="826.4" y="102.1" width="6.9" height="5.7" fill="#c96b6b"><animate attributeName="height" from="0" to="5.7" begin="3.22s" dur=".25s" fill="freeze"/></rect></g><path d="M30.2,183.8 L42.5,186.8 L54.8,196.5 L67.1,198.7 L79.4,197.5 L91.7,197.6 L104.0,196.4 L116.3,193.8 L128.6,193.1 L140.9,191.4 L153.2,188.7 L165.5,189.0 L177.8,192.6 L190.1,193.2 L202.4,193.7 L214.7,195.0 L227.0,199.2 L239.3,204.5 L251.6,204.8 L263.9,203.3 L276.2,196.5 L288.5,192.2 L300.8,185.7 L313.1,182.4 L325.4,177.8 L337.7,172.7 L350.0,171.0 L362.3,168.9 L374.6,169.6 L386.9,169.3 L399.2,174.0 L411.5,174.8 L423.8,175.3 L436.2,175.9 L448.5,174.2 L460.8,169.6 L473.1,167.1 L485.4,165.1 L497.7,160.2 L510.0,156.3 L522.3,147.3 L534.6,137.4 L546.9,127.7 L559.2,121.8 L571.5,112.8 L583.8,104.0 L596.1,96.5 L608.4,87.8 L620.7,81.3 L633.0,75.3 L645.3,70.1 L657.6,65.1 L669.9,62.6 L682.2,62.3 L694.5,61.7 L706.8,65.3 L719.1,70.2 L731.4,76.5 L743.7,83.1 L756.0,91.0 L768.3,99.8 L780.6,103.5 L792.9,108.9 L805.2,112.8 L817.5,113.6 L829.8,114.0" fill="none" stroke="#a9c98c" stroke-width="1.6" stroke-dasharray="857" stroke-dashoffset="857" opacity=".9"><animate attributeName="stroke-dashoffset" from="857" to="0" begin="0.3s" dur="2.97s" fill="freeze"/></path><g opacity="0"><set attributeName="opacity" to="1" begin="3.27s"/><line x1="24" y1="114.0" x2="836" y2="114.0" stroke="#a9c98c" stroke-dasharray="2 4" opacity=".35"/><circle cx="829.8" cy="114" r="3" fill="#a9c98c"/><circle cx="829.8" cy="114" r="3" fill="none" stroke="#a9c98c" stroke-width="1.5"><animate attributeName="r" values="3;9" dur="1.6s" repeatCount="indefinite"/><animate attributeName="opacity" values=".9;0" dur="1.6s" repeatCount="indefinite"/></circle></g><rect width="860" height="262" fill="url(#veil)"/><g transform="translate(710 18)"><rect width="132" height="22" rx="11" fill="#ff6b6b" fill-opacity=".1" stroke="#ff6b6b" stroke-opacity=".4"/><circle cx="14" cy="11" r="3" fill="#ff6b6b"/><circle cx="14" cy="11" r="3" fill="none" stroke="#ff6b6b" stroke-width="1.5"><animate attributeName="r" values="3;9" dur="1.2s" repeatCount="indefinite"/><animate attributeName="opacity" values=".9;0" dur="1.2s" repeatCount="indefinite"/></circle><text x="26" y="14.6" font-size="10" fill="#ff6b6b" font-weight="bold">LIVE</text><text x="58" y="14.2" font-size="9" fill="#8b949e">2026-10-10</text></g><text x="40" y="62" font-size="12" fill="#8b949e" clip-path="url(#pr)">tushar@github:~$ ./boot.sh --profile</text><g opacity="0"><animate attributeName="opacity" from="0" to="1" begin="0.5s" dur=".3s" fill="freeze"/><text x="40" y="124" font-size="38" font-weight="bold" fill="#e6edf3" filter="url(#soft)" opacity=".28">TUSHAR R. CHANDANE</text><text x="40" y="124" font-size="38" font-weight="bold" fill="#e6edf3">TUSHAR R. CHANDANE</text></g><text x="36.96" y="124" font-size="38" font-weight="bold" fill="#ff4d6d" opacity="0">TUSHAR R. CHANDANE<animate attributeName="opacity" values="0;.85;0;.6;0;.4;0" dur=".9s" begin="0.55s" fill="freeze"/></text><text x="43.04" y="124" font-size="38" font-weight="bold" fill="#4dd6ff" opacity="0">TUSHAR R. CHANDANE<animate attributeName="opacity" values="0;.85;0;.6;0;.4;0" dur=".9s" begin="0.60s" fill="freeze"/></text><g opacity="0"><animate attributeName="opacity" from="0" to="1" begin="1.3s" dur=".4s" fill="freeze"/><text x="40" y="168" font-size="17" fill="#8b949e">&gt; building</text><text x="152" y="168" font-size="17" fill="#a9c98c" clip-path="url(#ph0)">trading systems</text><text x="152" y="168" font-size="17" fill="#a9c98c" clip-path="url(#ph1)">AI workflows</text><text x="152" y="168" font-size="17" fill="#a9c98c" clip-path="url(#ph2)">full-stack products</text><text x="152" y="168" font-size="17" fill="#a9c98c" clip-path="url(#ph3)">automation that saves time</text><rect x="152" y="152.7" width="10.2" height="19" fill="#a9c98c"><animate attributeName="x" values="152.0;152.0;305.0;305.0;152.0;152.0;274.4;274.4;152.0;152.0;345.8;345.8;152.0;152.0;417.2;417.2;152.0;152.0" keyTimes="0.0000;0.0001;0.0809;0.1985;0.2316;0.2501;0.3309;0.4485;0.4816;0.5001;0.5809;0.6985;0.7316;0.7501;0.8309;0.9485;0.9816;1.0000" dur="13.6s" begin="1.6s" repeatCount="indefinite"/><animate attributeName="opacity" values="1;1;.15;.15" dur="1s" repeatCount="indefinite"/></rect></g><g opacity="0"><animate attributeName="opacity" from="0" to="1" begin="1.8s" dur=".5s" fill="freeze"/><rect x="40" y="192" width="96.5" height="18" rx="9" fill="#7ee787" fill-opacity=".12" stroke="#7ee787" stroke-opacity=".38"/><circle cx="49.5" cy="201" r="2.8" fill="#7ee787"/><circle cx="49.5" cy="201" r="2.8" fill="none" stroke="#7ee787" stroke-width="1.5"><animate attributeName="r" values="2.8;8.4" dur="1.6s" repeatCount="indefinite"/><animate attributeName="opacity" values=".9;0" dur="1.6s" repeatCount="indefinite"/></circle><text x="58.5" y="204.6" font-size="10" fill="#7ee787">open to work</text><rect x="144.5" y="192" width="72" height="18" rx="9" fill="#8b949e" fill-opacity=".12" stroke="#8b949e" stroke-opacity=".38"/><text x="150.5" y="204.6" font-size="10" fill="#8b949e">Mumbai, IN</text><rect x="224.5" y="192" width="156" height="18" rx="9" fill="#a9c98c" fill-opacity=".12" stroke="#a9c98c" stroke-opacity=".38"/><text x="230.5" y="204.6" font-size="10" fill="#a9c98c">5,089 contributions / yr</text><rect x="388.5" y="192" width="108" height="18" rx="9" fill="#e0a458" fill-opacity=".12" stroke="#e0a458" stroke-opacity=".38"/><text x="394.5" y="204.6" font-size="10" fill="#e0a458">10 live products</text></g><rect x="0" y="262" width="860" height="34" fill="#0a0e0b"/><line x1="0" y1="262" x2="860" y2="262" stroke="#30363d"/><g><animateTransform attributeName="transform" type="translate" from="0 0" to="-1432.2 0" dur="31.8s" repeatCount="indefinite"/><text x="16" y="283" font-size="11" xml:space="preserve"><tspan fill="#8b949e">STREAK </tspan><tspan fill="#e6edf3" font-weight="bold">281D </tspan><tspan fill="#7ee787">▲</tspan><tspan>     </tspan><tspan fill="#8b949e">CONTRIB/YR </tspan><tspan fill="#e6edf3" font-weight="bold">5,089 </tspan><tspan fill="#7ee787">▲</tspan><tspan>     </tspan><tspan fill="#8b949e">RED-MACHINE </tspan><tspan fill="#e6edf3" font-weight="bold">LIVE </tspan><tspan fill="#ff6b6b">●</tspan><tspan>     </tspan><tspan fill="#8b949e">PUBLIC REPOS </tspan><tspan fill="#e6edf3" font-weight="bold">82 </tspan><tspan fill="#7ee787">▲</tspan><tspan>     </tspan><tspan fill="#8b949e">BEST DAY </tspan><tspan fill="#e6edf3" font-weight="bold">91 </tspan><tspan fill="#7ee787">▲</tspan><tspan>     </tspan><tspan fill="#8b949e">LIVE PRODUCTS </tspan><tspan fill="#e6edf3" font-weight="bold">10 </tspan><tspan fill="#7ee787">▲</tspan><tspan>     </tspan><tspan fill="#8b949e">ACTIVE DAYS </tspan><tspan fill="#e6edf3" font-weight="bold">85% </tspan><tspan fill="#7ee787">▲</tspan><tspan>     </tspan><tspan fill="#8b949e">STACK </tspan><tspan fill="#e6edf3" font-weight="bold">PY · TS · REACT · NEXT · NODE </tspan><tspan fill="#79c0ff">◆</tspan><tspan>     </tspan><tspan fill="#8b949e">STATUS </tspan><tspan fill="#e6edf3" font-weight="bold">OPEN TO WORK </tspan><tspan fill="#7ee787">●</tspan><tspan>     </tspan><tspan fill="#8b949e">STREAK </tspan><tspan fill="#e6edf3" font-weight="bold">281D </tspan><tspan fill="#7ee787">▲</tspan><tspan>     </tspan><tspan fill="#8b949e">CONTRIB/YR </tspan><tspan fill="#e6edf3" font-weight="bold">5,089 </tspan><tspan fill="#7ee787">▲</tspan><tspan>     </tspan><tspan fill="#8b949e">RED-MACHINE </tspan><tspan fill="#e6edf3" font-weight="bold">LIVE </tspan><tspan fill="#ff6b6b">●</tspan><tspan>     </tspan><tspan fill="#8b949e">PUBLIC REPOS </tspan><tspan fill="#e6edf3" font-weight="bold">82 </tspan><tspan fill="#7ee787">▲</tspan><tspan>     </tspan><tspan fill="#8b949e">BEST DAY </tspan><tspan fill="#e6edf3" font-weight="bold">91 </tspan><tspan fill="#7ee787">▲</tspan><tspan>     </tspan><tspan fill="#8b949e">LIVE PRODUCTS </tspan><tspan fill="#e6edf3" font-weight="bold">10 </tspan><tspan fill="#7ee787">▲</tspan><tspan>     </tspan><tspan fill="#8b949e">ACTIVE DAYS </tspan><tspan fill="#e6edf3" font-weight="bold">85% </tspan><tspan fill="#7ee787">▲</tspan><tspan>     </tspan><tspan fill="#8b949e">STACK </tspan><tspan fill="#e6edf3" font-weight="bold">PY · TS · REACT · NEXT · NODE </tspan><tspan fill="#79c0ff">◆</tspan><tspan>     </tspan><tspan fill="#8b949e">STATUS </tspan><tspan fill="#e6edf3" font-weight="bold">OPEN TO WORK </tspan><tspan fill="#7ee787">●</tspan><tspan>     </tspan><tspan fill="#8b949e">STREAK </tspan><tspan fill="#e6edf3" font-weight="bold">281D </tspan><tspan fill="#7ee787">▲</tspan><tspan>     </tspan><tspan fill="#8b949e">CONTRIB/YR </tspan><tspan fill="#e6edf3" font-weight="bold">5,089 </tspan><tspan fill="#7ee787">▲</tspan><tspan>     </tspan><tspan fill="#8b949e">RED-MACHINE </tspan><tspan fill="#e6edf3" font-weight="bold">LIVE </tspan><tspan fill="#ff6b6b">●</tspan><tspan>     </tspan><tspan fill="#8b949e">PUBLIC REPOS </tspan><tspan fill="#e6edf3" font-weight="bold">82 </tspan><tspan fill="#7ee787">▲</tspan><tspan>     </tspan><tspan fill="#8b949e">BEST DAY </tspan><tspan fill="#e6edf3" font-weight="bold">91 </tspan><tspan fill="#7ee787">▲</tspan><tspan>     </tspan><tspan fill="#8b949e">LIVE PRODUCTS </tspan><tspan fill="#e6edf3" font-weight="bold">10 </tspan><tspan fill="#7ee787">▲</tspan><tspan>     </tspan><tspan fill="#8b949e">ACTIVE DAYS </tspan><tspan fill="#e6edf3" font-weight="bold">85% </tspan><tspan fill="#7ee787">▲</tspan><tspan>     </tspan><tspan fill="#8b949e">STACK </tspan><tspan fill="#e6edf3" font-weight="bold">PY · TS · REACT · NEXT · NODE </tspan><tspan fill="#79c0ff">◆</tspan><tspan>     </tspan><tspan fill="#8b949e">STATUS </tspan><tspan fill="#e6edf3" font-weight="bold">OPEN TO WORK </tspan><tspan fill="#7ee787">●</tspan><tspan>     </tspan></text></g><rect width="860" height="296" fill="url(#scan)" opacity=".5"/></g><rect x=".5" y=".5" width="859" height="295" rx="12" fill="none" stroke="#30363d"/></svg>
